<svg xmlns="http://www.w3.org/2000/svg" aria-hidden="true" overflow="hidden" style="position:absolute;width:0;height:0">
    <defs>
        <symbol id="icon-country" viewBox="0 0 32 32">
            <path fill="none" stroke="#f2b19a" style="stroke: var(--color1, #f2b19a)" stroke-linejoin="round" stroke-linecap="round" stroke-miterlimit="4" stroke-width="1.3333" d="M8.841 27.291l0.949-2.379c-0.522-0.438-1.152-0.73-1.824-0.847s-1.365-0.054-2.005 0.182c-0.564-1.309-1.026-2.486-1.577-3.627-0.194-0.395-0.579-0.665-0.287-1.183 0.056-0.205 0.034-0.423-0.062-0.613-0.367-0.963-0.595-1.882-0.018-2.86 0.073-0.196 0.083-0.411 0.028-0.613-0.25-1.475 0.548-2.232 2.070-1.91 0.183 0.020 0.368 0.020 0.551 0-0.098-0.32-0.154-0.65-0.166-0.984 0.070-0.368 0.179-0.728 0.327-1.073l-1.34-0.132-0.074-0.346 1.67-0.681 0.401-1.904c-0.256-0.144-0.647-0.23-0.776-0.463-0.219-0.395-0.283-0.889 0.339-1.088 0.114-0.037 0.243-0.024 0.36-0.058 0.453-0.12 1.023-0.472 1.322-0.307s0.376 0.822 0.558 1.257c0.031 0.077 0.114 0.132 0.388 0.153l-0.216-1.012 0.869-0.058 0.28 1.208 0.308-0.083c-0.092-0.349-0.191-0.699-0.277-1.051-0.16-0.638 0.068-0.96 0.742-0.788 0.511 0.129 0.998 0.349 1.503 0.503 0.379 0.12 0.77 0.199 1.158 0.307l0.123-0.307c-0.786-0.386-1.577-0.757-2.351-1.162-0.185-0.098-0.425-0.291-0.447-0.466-0.029-0.53-0.028-1.061 0.003-1.591h-0.77l-0.037-0.169 1.069-0.334c-0.308-0.389-0.616-0.748-0.903-1.134-0.094-0.143-0.129-0.316-0.099-0.484 0.037-0.062 0.090-0.112 0.153-0.146s0.135-0.050 0.207-0.047c1.097 0.353 2.483-0.135 3.3 1.137l-0.481 0.843 0.924 1.226 0.709-0.723c0.555 0 1.121-0.018 1.685 0 0.206 0.042 0.405 0.114 0.592 0.212-0.105 0.187-0.169 0.432-0.327 0.549-0.354 0.267-0.755 0.472-1.232 0.763 0.807 0.12 1.42 0.334 1.984 0.248 0.333-0.052 0.592-0.586 0.952-0.978l1.969-1.070 0.102 0.153-0.576 0.641c0.086 0.052 0.16 0.11 0.169 0.098 0.924-0.834 1.642-0.205 2.366 0.34 0.139 0.104 0.308 0.337 0.404 0.307 0.924-0.328 1.026 0.248 1.026 0.92 0.395 0.081 0.78 0.205 1.149 0.368 0.376 0.221 0.875 0.509 0.974 0.861 0.157 0.573 0.342 1.291-0.407 1.738-0.157 0.092-0.339 0.374-0.308 0.518 0.173 0.696 0.416 1.376 0.638 2.063 0.129 0.411 0.385 0.828 0.367 1.226-0.043 0.868 0.616 1.343 0.943 1.993 0.567 1.085 0.551 1.192 0.16 2.345-0.508 0.463-1.664-0.613-1.667 0.858-0.93-0.101-1.872 0.031-2.738 0.384s-1.63 0.915-2.222 1.636l-1.011-0.264c0.105 1.358 2.033 1.904 1.328 3.127l1.414 1.425c0.231 0.23 0.468 0.451 0.693 0.687 0.447 0.463 1.306 1.024 1.232 1.376-0.123 0.573-0.86 1.021-1.356 1.502-0.308 0.307-0.681 0.595-0.878 0.766l0.77 1.383-0.117 0.212c-1.442-0.711-2.653 0.162-3.959 0.411-0.474 0.038-0.952 0-1.414-0.11-0.588-0.080-1.171-0.193-1.793-0.307l-0.154 1.134c-0.9-0.999-2.366-0.251-3.152-1.422-0.111-0.169-0.699-0.025-1.251-0.025 0.074 0.123 0 0.037-0.034-0.061-0.063-0.16-0.118-0.324-0.163-0.491-0.588 0.733-1.192 1.413-2.138 0.963-0.423-0.211-0.783-0.528-1.044-0.92-0.101-0.139-0.171-0.297-0.205-0.465s-0.030-0.341 0.010-0.508 0.116-0.323 0.223-0.457c0.106-0.135 0.241-0.245 0.394-0.323v0z"></path>
        </symbol>
        <symbol id="icon-like" viewBox="0 0 32 32">
            <path fill="#f2b19a" style="fill: var(--color1, #f2b19a)" d="M30.404 21.334c-0-0.475-0.141-0.939-0.404-1.332s-0.636-0.699-1.072-0.877c0.271-0.35 0.439-0.77 0.485-1.212s-0.030-0.888-0.222-1.288c-0.192-0.4-0.491-0.738-0.863-0.975s-0.803-0.364-1.243-0.367h-3.583c-0.27 0-0.538 0.049-0.792 0.142 0.93-1.288 2.305-3.551 2.173-5.527-0.162-2.327-2.164-3.142-3.001-3.385-0.11-0.032-0.225-0.041-0.338-0.028s-0.223 0.050-0.322 0.107c-0.101 0.056-0.191 0.131-0.263 0.223s-0.126 0.196-0.157 0.308c-0.012 0.052-0.021 0.105-0.027 0.158-0.060 0.718-0.324 2.473-1.5 3.267-1.332 0.939-6.53 5.273-7.502 6.091h-2.773v-1.836l-0.54-0.545h-6.323l-0.54 0.545v14.878l0.54 0.545h6.323l0.54-0.545v-2.067h1.626c0.536-0.003 1.053 0.204 1.44 0.579l0.534 0.512c1.525 1.476 3.556 2.299 5.668 2.297h8.234c0.59-0.003 1.155-0.241 1.572-0.663s0.652-0.992 0.655-1.588v-0.242c0.003-0.527-0.176-1.038-0.507-1.445 0.298-0.165 0.557-0.394 0.759-0.67s0.342-0.593 0.411-0.93c0.069-0.336 0.064-0.683-0.013-1.018s-0.225-0.648-0.434-0.919c0.43-0.18 0.797-0.483 1.057-0.873s0.399-0.848 0.402-1.318zM27.079 16.376c0.25 0.002 0.494 0.079 0.701 0.22s0.369 0.341 0.465 0.574 0.122 0.489 0.075 0.737c-0.047 0.248-0.166 0.476-0.34 0.657-0.117 0.12-0.258 0.215-0.412 0.279s-0.321 0.096-0.488 0.094h-0.531v0.021h-3.046c-0.289-0.001-0.569-0.101-0.794-0.283s-0.383-0.436-0.448-0.72c0-0.145 0-0.303-0.021-0.433 0.035-0.314 0.183-0.605 0.415-0.816s0.535-0.329 0.848-0.33h3.577zM7.919 29.133h-5.242v-13.784h5.242v13.784zM13.344 27.921l-0.534-0.512c-0.589-0.57-1.375-0.887-2.191-0.882h-1.62v-8.788h2.971l0.345-0.124c0.060-0.052 6.179-5.173 7.577-6.154s1.809-2.833 1.936-3.821c0.789 0.276 1.885 0.909 1.984 2.333 0.135 1.994-1.8 4.603-2.371 5.345-0.072 0.088-0.267 0.342-0.267 0.342l0.3 0.221-0.558 0.127 0.12 0.533c0.069 0.299 0.116 0.603 0.141 0.909 0 0.067 0 0.133 0 0.203 0 0.124 0.011 0.248 0.033 0.37-0.007 0.765-0.145 1.522-0.408 2.239 0 0 0 0.033-0.024 0.052s-0.048 0.121-0.078 0.185c-1.044 2.221-3.499 2.645-3.532 2.651l-0.531 0.082 0.162 1.079 0.537-0.082c1.309-0.255 2.507-0.917 3.424-1.894 0.208 0.452 0.551 0.826 0.981 1.070-0.215 0.246-0.377 0.534-0.476 0.846s-0.133 0.642-0.099 0.968c0.034 0.326 0.134 0.642 0.294 0.927s0.378 0.533 0.638 0.729c-0.221 0.211-0.396 0.465-0.516 0.747s-0.181 0.586-0.18 0.892v0.242c0.003 0.41 0.116 0.811 0.327 1.161h-3.457c-1.837-0.002-3.603-0.721-4.927-2.006v0.009zM27.661 28.764c-0.004 0.308-0.128 0.601-0.345 0.817s-0.509 0.337-0.814 0.337h-2.878c-0.304-0.002-0.596-0.124-0.811-0.342s-0.337-0.512-0.338-0.819v-0.242c0.002-0.306 0.125-0.599 0.34-0.815s0.506-0.337 0.81-0.337h3.022c0.279 0.032 0.536 0.166 0.723 0.378s0.291 0.485 0.291 0.768v0.255zM27.085 26.285h-0.333c-0.080-0.005-0.16-0.005-0.24 0h-3.010c-0.318 0.001-0.625-0.117-0.861-0.332s-0.385-0.511-0.416-0.831c-0.032-0.32 0.056-0.64 0.246-0.897s0.468-0.435 0.78-0.497h3.967c0.326 0.032 0.627 0.19 0.841 0.44s0.324 0.575 0.306 0.905c-0.017 0.33-0.16 0.641-0.398 0.868s-0.554 0.352-0.882 0.35v-0.006zM28.048 22.631h-0.714c-0.083-0.005-0.166-0.005-0.249 0h-3.034v-0.027h-0.549c-0.114-0-0.227 0.009-0.339 0.027h-0.261c-0.338 0-0.663-0.136-0.902-0.377s-0.374-0.569-0.374-0.911c-0-0.138 0.022-0.275 0.066-0.406 0.032-0.071 0.062-0.14 0.090-0.209 0.060-0.104 0.133-0.201 0.216-0.288 0.239-0.242 0.562-0.378 0.9-0.379h5.161c0.328 0.016 0.637 0.159 0.864 0.399s0.353 0.559 0.353 0.89c0 0.332-0.126 0.65-0.353 0.89s-0.536 0.383-0.864 0.399l-0.012-0.009z"></path>
            <path fill="#f2b19a" style="fill: var(--color1, #f2b19a)" d="M22.087 1l-0.005 4.418 1.080 0.001 0.005-4.418-1.080-0.001z"></path>
            <path fill="#f2b19a" style="fill: var(--color1, #f2b19a)" d="M25.934 1.98l-1.973 3.441 0.938 0.548 1.973-3.441-0.937-0.548z"></path>
            <path fill="#f2b19a" style="fill: var(--color1, #f2b19a)" d="M28.982 4.667l-3.418 1.979 0.537 0.946 3.418-1.979-0.537-0.946z"></path>
            <path fill="#f2b19a" style="fill: var(--color1, #f2b19a)" d="M26.464 8.768l-0.004 1.091 3.826 0.013 0.004-1.091-3.826-0.013z"></path>
        </symbol>
        <symbol id="icon-plant" viewBox="0 0 32 32">
            <path fill="#f2b19a" style="fill: var(--color1, #f2b19a)" d="M27.43 8.016l-1.044 0.306c-0.379 2.499-2.32 4.62-4.368 6.645-0.227-1.39-0.564-2.76-1.007-4.097-0.754-2.475-1.606-5.298-1.429-8.683l-0.836-0.587c-0.11 0.046-10.593 4.632-8.514 14.054-4.954-1.247-9.848 1.696-9.912 1.735l0.122 1.088c2.32 0.791 3.965 3.196 5.547 5.524 1.172 1.726 2.283 3.361 3.633 4.216 2.848 1.803 5.235 2.181 6.737 2.181 0.529 0.008 1.056-0.047 1.572-0.162 0.15 0 0.415 0.034 0.785 0.034 1.932 0 6.566-0.547 10.269-5.325 6.249-8.051-1.474-16.838-1.554-16.929zM11.523 15.893c-0.98-3.666 0-6.984 2.891-9.863 1.171-1.147 2.496-2.124 3.938-2.903 0 3.144 0.797 5.759 1.502 8.094 0.546 1.796 1.013 3.361 1.047 4.846-1.551 1.528-2.961 2.988-3.575 4.552-2.064-8.109 0.122-13.987 0.147-14.054l0.217-0.562-1.126-0.431-0.217 0.562c-0.098 0.254-2.112 5.643-0.513 13.379-0.217-0.281-0.44-0.556-0.678-0.816-0.982-1.124-2.204-2.014-3.575-2.603l-0.058-0.202zM10.265 27.197c-1.139-0.721-2.177-2.255-3.279-3.877-1.368-2.010-2.888-4.25-4.973-5.448 2.351-1.075 8.108-2.988 12.247 1.647 1.070 1.174 1.875 2.565 2.36 4.079l0.049 0.147c-0.049 0.722-0.049 1.447 0 2.169-1.615-2.276-4.634-5.194-10.474-7.522l-0.559-0.226-0.449 1.121 0.562 0.223c8.276 3.312 10.55 7.773 11.359 9.646-1.123 0.116-3.636 0.073-6.844-1.958zM28.032 24.209c-1.644 2.208-3.988 3.793-6.649 4.494-0.524 0.141-1.058 0.243-1.596 0.306 2.079-1.662 6.194-5.851 8.193-14.125l0.143-0.587-1.172-0.284-0.143 0.587c-1.334 5.518-3.663 9.096-5.4 11.124-0.919 1.107-1.98 2.087-3.156 2.915-0.345-1.573-0.474-3.186-0.385-4.794l0.076-0.024-0.061-0.189c0.021-0.235 0.046-0.471 0.082-0.706h0.018v-0.037c0.084-0.592 0.228-1.173 0.43-1.735 0.528-1.436 2-2.906 3.581-4.461h0.122v-0.122l0.058-0.055c1.996-1.952 4.222-4.134 5.098-6.743 0.901 1.252 1.632 2.619 2.173 4.064 1.401 3.856 0.937 7.342-1.413 10.373z"></path>
        </symbol>
        <symbol id="icon-video" viewBox="0 0 32 32">
            <path fill="none" stroke="#f2b19a" style="stroke: var(--color1, #f2b19a)" stroke-linejoin="miter" stroke-linecap="butt" stroke-miterlimit="10" stroke-width="1.28" d="M25.653 6.72h-19.305c-2.268 0-4.107 1.795-4.107 4.010v10.22c0 2.215 1.839 4.010 4.107 4.010h19.305c2.268 0 4.107-1.795 4.107-4.010v-10.22c0-2.215-1.839-4.010-4.107-4.010z"></path>
            <path fill="none" stroke="#f2b19a" style="stroke: var(--color1, #f2b19a)" stroke-linejoin="miter" stroke-linecap="butt" stroke-miterlimit="10" stroke-width="1.28" d="M11.84 12.16v7.362c-0 0.109 0.029 0.216 0.085 0.311s0.136 0.175 0.234 0.232 0.209 0.090 0.323 0.094c0.114 0.005 0.228-0.019 0.33-0.068l7.622-3.685c0.11-0.053 0.203-0.134 0.268-0.234s0.099-0.216 0.099-0.333c0-0.118-0.034-0.233-0.099-0.333s-0.157-0.181-0.268-0.234l-7.622-3.682c-0.102-0.050-0.216-0.074-0.33-0.070s-0.226 0.037-0.324 0.094c-0.098 0.057-0.178 0.138-0.234 0.233s-0.084 0.203-0.084 0.312v0z"></path>
        </symbol>
        <symbol id="icon-gift" viewBox="0 0 32 32">
            <path fill="#f2b19a" style="fill: var(--color1, #f2b19a)" d="M28.652 10.582h-3.857c0.419-0.49 0.688-1.091 0.774-1.731s-0.014-1.291-0.288-1.875c-0.377-0.807-1.058-1.432-1.893-1.737s-1.757-0.266-2.564 0.108c-0.506 0.236-1.247 0.905-2.018 1.705 0.272-0.666 0.445-1.369 0.513-2.086-0.001-0.893-0.355-1.75-0.986-2.381s-1.485-0.986-2.376-0.986v0c-0.89 0-1.744 0.354-2.374 0.985s-0.985 1.486-0.987 2.379c0.069 0.718 0.244 1.423 0.519 2.090-0.774-0.809-1.518-1.473-2.021-1.708-0.603-0.281-1.275-0.376-1.932-0.273s-1.268 0.399-1.757 0.85-0.833 1.038-0.989 1.686c-0.156 0.648-0.117 1.327 0.112 1.953 0.137 0.378 0.341 0.727 0.602 1.032h-3.874l-0.698 0.693v5.423l0.698 0.7h10.123v11.908h-7.725v-11.032h-1.399v11.732l0.698 0.703h22l0.698-0.703v-11.732h-1.396v11.032h-7.728v-11.908h10.123l0.705-0.7v-5.423l-0.705-0.703zM21.417 6.619c0.469-0.208 1.001-0.223 1.481-0.043s0.87 0.543 1.087 1.009 0.242 0.999 0.071 1.484c-0.171 0.485-0.525 0.883-0.985 1.109-0.533 0.245-2.223 0.362-3.97 0.401h-1.558c1.389-1.665 3.159-3.625 3.874-3.96zM14.572 3.59c0.181-0.183 0.397-0.328 0.634-0.426s0.492-0.149 0.749-0.148c0.518 0.001 1.015 0.208 1.382 0.575s0.573 0.866 0.574 1.385c0 0.64-0.777 2.69-1.962 5.204-1.198-2.571-1.955-4.577-1.955-5.201-0-0.259 0.051-0.515 0.15-0.753s0.245-0.455 0.429-0.637zM8.846 10.181c-0.402-0.191-0.727-0.512-0.923-0.913s-0.25-0.855-0.154-1.29c0.096-0.435 0.337-0.825 0.683-1.105s0.776-0.434 1.221-0.437c0.287 0.001 0.57 0.064 0.83 0.186 0.698 0.332 2.468 2.295 3.861 3.964h-1.743c-1.674-0.030-3.265-0.169-3.775-0.405zM3.959 16.006v-4.020h9.422v4.020h-9.422zM14.781 29.317v-17.315h0.49l0.030 0.063 0.139-0.066h1.075l0.093 0.043 0.020-0.040h0.49v17.315h-2.336zM27.954 16.006h-9.425v-4.007h9.425v4.007z"></path>
        </symbol>
        <symbol id="icon-fill" viewBox="0 0 32 32">
            <path fill="#f2b19a" style="fill: var(--color1, #f2b19a)" d="M11.139 3.968l1.29-2.048 3.357 1.985c3.866 2.267 7.724 4.545 11.598 6.788 0.631 0.361 0.75 0.675 0.371 1.33-2.619 4.505-5.164 9.054-7.748 13.591-0.88 1.544-1.811 1.794-3.361 0.889-3.787-2.21-7.568-4.431-11.342-6.665-1.688-1-1.972-2.036-0.994-3.692 0.253-0.385 0.388-0.836 0.388-1.298s-0.135-0.913-0.388-1.298c-0.438-0.766-0.955-1.489-1.42-2.243-0.789-1.294-0.903-2.628-0.099-3.95 0.538-0.934 1.15-1.824 1.83-2.659 1.542-1.786 3.176-2.124 5.349-1.231 0.375 0.151 0.746 0.318 1.168 0.5zM25.735 11.232c-0.157-0.155-0.323-0.301-0.497-0.437-3.945-2.334-7.929-4.656-11.886-6.998-0.54-0.322-0.789-0.091-1.030 0.357-1.184 2.096-2.367 4.176-3.55 6.268-0.127 0.257-0.237 0.522-0.327 0.794l17.291 0.016zM5.627 13.578c0.99-0.834 0.268-1.473-0.17-2.132-1.183-1.818-1.085-3.021 0.509-4.974 0.986-1.191 1.692-1.294 3.712-0.472 0.113 0.025 0.228 0.034 0.343 0.028l0.446-0.857c-1.803-1.365-3.645-1.266-5.022 0.322-0.749 0.854-1.384 1.803-1.89 2.822-0.123 0.298-0.186 0.617-0.186 0.939s0.063 0.641 0.186 0.939c0.628 1.166 1.32 2.296 2.071 3.386zM6.933 11.502c0.761-1.346 1.483-2.592 2.162-3.858 0.029-0.107 0.032-0.22 0.009-0.328s-0.072-0.21-0.143-0.295c-0.3-0.259-0.688-0.389-1.082-0.362s-0.762 0.208-1.024 0.505c-1.535 1.639-1.539 2.54 0.079 4.338z"></path>
            <path fill="#f2b19a" style="fill: var(--color1, #f2b19a)" d="M27.052 21.711c1.144 1.854 2.237 3.513 2.639 5.505 0.217 1.060 0.047 2.060-0.943 2.679-0.493 0.322-1.068 0.497-1.656 0.503s-1.166-0.156-1.666-0.467c-0.99-0.564-1.156-1.528-1.002-2.564 0.316-2.092 1.539-3.747 2.627-5.656zM27.34 24.017h-0.56c-0.511 1.166-0.959 2.358-1.341 3.572-0.252 0.953 0.462 1.524 1.641 1.528 1.116 0 1.842-0.56 1.61-1.465-0.384-1.236-0.834-2.449-1.349-3.636z"></path>
            <path fill="#f2b19a" style="fill: var(--color1, #f2b19a)" d="M28.256 14.824c0.485 1.052 1.093 2.064 1.412 3.175 0.075 0.307 0.078 0.627 0.010 0.936s-0.207 0.597-0.404 0.843c-0.426 0.369-1.282 0.456-1.89 0.345-0.927-0.175-1.31-1.191-0.884-2.338 0.395-1.020 0.939-1.985 1.42-2.957l0.335-0.004zM28.386 17.115l-0.619-0.024c-0.083 0.599-0.162 1.191-0.245 1.79l1.061 0.020c-0.067-0.595-0.13-1.191-0.197-1.786z"></path>
        </symbol>
    </defs>
</svg>